HIERARCHY
ROOT Pelvis
{
	OFFSET 0.000000 0.000000 0.000000
	CHANNELS 6 Xposition Yposition Zposition Xrotation Yrotation Zrotation
	JOINT LeftUpLeg_virtual
	{
		OFFSET 0.000000 0.000000 0.000000
		CHANNELS 3 Xrotation Yrotation Zrotation
		JOINT LeftUpLeg
		{
			OFFSET 18.735201 -5.666702 -4.541200
			CHANNELS 3 Xrotation Yrotation Zrotation
			JOINT LeftLeg
			{
				OFFSET -0.021200 -31.938179 0.493100
				CHANNELS 3 Xrotation Yrotation Zrotation
				JOINT LeftFoot
				{
					OFFSET 0.021200 -31.938179 -4.336299
					CHANNELS 3 Xrotation Yrotation Zrotation
					JOINT LeftToeBase
					{
						OFFSET 0.943001 -26.722000 15.023500
						CHANNELS 3 Xrotation Yrotation Zrotation
						End Site
						{
							OFFSET 0 0 0
						}
					}
				}
			}
		}
	}
	JOINT RightUpLeg_virtual
	{
		OFFSET 0.000000 0.000000 0.000000
		CHANNELS 3 Xrotation Yrotation Zrotation
		JOINT RightUpLeg
		{
			OFFSET -18.735201 -5.666702 -4.541200
			CHANNELS 3 Xrotation Yrotation Zrotation
			JOINT RightLeg
			{
				OFFSET 0.018946 -31.938133 0.493100
				CHANNELS 3 Xrotation Yrotation Zrotation
				JOINT RightFoot
				{
					OFFSET -0.018946 -31.938126 -4.336299
					CHANNELS 3 Xrotation Yrotation Zrotation
					JOINT RightToeBase
					{
						OFFSET -0.943001 -26.722004 15.023500
						CHANNELS 3 Xrotation Yrotation Zrotation
						End Site
						{
							OFFSET 0 0 0
						}
					}
				}
			}
		}
	}
	JOINT Hips_virtual
	{
		OFFSET 0.000000 0.000000 0.000000
		CHANNELS 3 Xrotation Yrotation Zrotation
		JOINT Hips
		{
			OFFSET -0.000000 -0.000000 -0.000000
			CHANNELS 3 Xrotation Yrotation Zrotation
			JOINT Spine
			{
				OFFSET 0.000000 10.199997 -0.299500
				CHANNELS 3 Xrotation Yrotation Zrotation
				JOINT Spine1
				{
					OFFSET 0.000000 11.900002 -1.516600
					CHANNELS 3 Xrotation Yrotation Zrotation
					JOINT Spine2
					{
						OFFSET 0.000000 13.600006 -2.842500
						CHANNELS 3 Xrotation Yrotation Zrotation
						JOINT Neck_virtual
						{
							OFFSET 0.000000 0.000000 0.000000
							CHANNELS 3 Xrotation Yrotation Zrotation
							JOINT Neck
							{
								OFFSET 0.000000 9.624100 -2.890100
								CHANNELS 3 Xrotation Yrotation Zrotation
								JOINT Head
								{
									OFFSET 0.000000 14.068802 -1.351900
									CHANNELS 3 Xrotation Yrotation Zrotation
									End Site
									{
										OFFSET 0 0 0
									}
								}
							}
						}
						JOINT LeftShoulder_virtual
						{
							OFFSET 0.000000 0.000000 0.000000
							CHANNELS 3 Xrotation Yrotation Zrotation
							JOINT LeftShoulder
							{
								OFFSET 15.263000 10.923401 -0.547700
								CHANNELS 3 Xrotation Yrotation Zrotation
								JOINT LeftArm
								{
									OFFSET 25.438599 -2.830597 -13.032500
									CHANNELS 3 Xrotation Yrotation Zrotation
									JOINT LeftForeArm
									{
										OFFSET 29.960503 0.000000 0.000000
										CHANNELS 3 Xrotation Yrotation Zrotation
										JOINT LeftHand
										{
											OFFSET 27.849251 0.000000 0.000000
											CHANNELS 3 Xrotation Yrotation Zrotation
											End Site
											{
												OFFSET 0 0 0
											}
										}
									}
								}
							}
						}
						JOINT RightShoulder_virtual
						{
							OFFSET 0.000000 0.000000 0.000000
							CHANNELS 3 Xrotation Yrotation Zrotation
							JOINT RightShoulder
							{
								OFFSET -15.263000 10.923401 -0.547700
								CHANNELS 3 Xrotation Yrotation Zrotation
								JOINT RightArm
								{
									OFFSET -25.438599 -2.830597 -13.032500
									CHANNELS 3 Xrotation Yrotation Zrotation
									JOINT RightForeArm
									{
										OFFSET -29.960503 0.000000 0.000000
										CHANNELS 3 Xrotation Yrotation Zrotation
										JOINT RightHand
										{
											OFFSET -27.849251 0.000000 0.000000
											CHANNELS 3 Xrotation Yrotation Zrotation
											End Site
											{
												OFFSET 0 0 0
											}
										}
									}
								}
							}
						}
					}
				}
			}
		}
	}
}
MOTION
Frames: 12
Frame Time: 0.03333333
-3.903346 87.879501 2.981560 0.000000 0.000000 0.000000 -5.655563 -42.315856 -2.610308 -32.882870 2.191886 14.377707 37.911778 -13.085161 2.273987 -3.095209 0.955351 -13.278547 0.000000 0.000000 0.000000 -5.655563 -42.315856 -2.610308 -1.449735 -13.845954 -19.018884 35.889683 19.295653 -4.971372 -33.253227 -2.671249 6.896956 0.000000 0.000000 0.000000 -5.655563 -42.315856 -2.610308 0.000000 -0.000002 0.000000 5.901347 0.404862 -0.116870 11.805248 0.991256 -0.356034 0.000000 0.000000 0.000000 11.805243 0.991262 -0.356034 1.121411 -5.594722 -0.520288 0.000000 0.000000 0.000000 11.805243 0.991262 -0.356034 0.953416 -3.294059 -6.337557 -7.803589 10.695485 -60.595697 -1.858059 -56.426344 -5.060462 0.000000 0.000000 0.000000 11.805243 0.991262 -0.356034 1.781017 9.143871 7.041881 5.733444 -24.152577 68.587626 -7.143952 60.700274 7.121734 0.000000 0.000000 0.000000 
-4.138443 88.098518 2.786324 0.000000 0.000000 0.000000 -5.866481 -46.151267 -2.903948 -30.992212 2.929451 15.837295 37.613135 -10.642037 1.924042 -4.204696 1.161411 -13.964247 0.000000 0.000000 0.000000 -5.866481 -46.151267 -2.903948 -4.080371 -13.207599 -19.575310 37.093617 20.312042 -5.775346 -32.258027 -2.624533 7.390815 0.000000 0.000000 0.000000 -5.866481 -46.151267 -2.903948 0.000000 0.000000 0.000000 5.994709 -0.127521 -0.025589 11.989266 -0.070019 -0.121171 0.000000 0.000000 0.000000 11.989278 -0.070046 -0.121160 1.023158 -5.555989 -0.582568 0.000000 0.000000 0.000000 11.989278 -0.070046 -0.121160 0.810233 -4.308825 -6.381135 -6.676086 12.150731 -60.876711 -2.277403 -57.498677 -5.268930 0.000000 0.000000 0.000000 11.989278 -0.070046 -0.121160 1.951321 7.799976 7.121223 6.182276 -23.943566 68.623839 -6.650516 61.549225 7.002546 0.000000 0.000000 0.000000 
-4.359092 88.286270 2.583447 0.000000 0.000000 0.000000 -6.122618 -49.980814 -3.200799 -28.980510 3.713374 17.102188 37.217988 -8.113716 1.583526 -5.231508 1.386007 -14.752054 0.000000 0.000000 0.000000 -6.122618 -49.980814 -3.200799 -6.697543 -12.454777 -19.965133 38.342763 21.024391 -6.606945 -31.187760 -2.620999 8.014078 0.000000 0.000000 0.000000 -6.122618 -49.980814 -3.200799 0.000000 0.000001 0.000000 6.064647 -0.649053 0.056371 12.129433 -1.118526 0.088671 0.000000 0.000000 0.000000 12.129429 -1.118529 0.088673 0.900503 -5.481036 -0.680073 0.000000 0.000000 0.000000 12.129429 -1.118529 0.088673 0.680387 -5.223092 -6.405306 -5.606931 13.591754 -61.004791 -2.951112 -58.492073 -5.571364 0.000000 0.000000 0.000000 12.129429 -1.118529 0.088673 2.096433 6.732500 7.083142 6.919941 -24.109980 68.744256 -6.249810 62.398320 6.854617 0.000000 0.000000 0.000000 
-4.553734 88.445236 2.408649 0.000000 0.000000 0.000000 -6.421608 -53.750853 -3.454400 -26.896493 4.549127 18.045959 36.783400 -5.495510 1.248544 -6.206793 1.610152 -15.488265 0.000000 0.000000 0.000000 -6.421608 -53.750853 -3.454400 -9.291748 -11.661423 -20.257510 39.647394 21.470397 -7.467220 -30.116001 -2.621043 8.647704 0.000000 0.000000 0.000000 -6.421608 -53.750853 -3.454400 0.000000 0.000003 0.000000 6.117388 -1.046120 0.097697 12.236341 -1.929286 0.195222 0.000000 0.000000 0.000000 12.236339 -1.929293 0.195223 0.761870 -5.439397 -0.756993 0.000000 0.000000 0.000000 12.236339 -1.929293 0.195223 0.531309 -6.264060 -6.402719 -4.795697 14.743363 -60.737382 -3.860303 -59.339905 -6.069126 0.000000 0.000000 0.000000 12.236339 -1.929293 0.195223 2.274322 5.224286 7.362081 7.458104 -24.432179 68.517787 -6.275213 63.212690 7.014555 0.000000 0.000000 0.000000 
-4.750276 88.590469 2.242847 0.000000 0.000000 0.000000 -7.009306 -57.306653 -3.958673 -24.734581 5.447002 18.796892 36.365645 -3.012764 0.929661 -7.118432 1.824516 -16.141294 0.000000 0.000000 0.000000 -7.009306 -57.306653 -3.958673 -11.415209 -10.811199 -20.201977 40.749691 21.450704 -8.403931 -29.054761 -2.681255 9.398076 0.000000 0.000000 0.000000 -7.009306 -57.306653 -3.958673 0.000000 0.000002 0.000000 6.153739 -1.343051 0.082567 12.309691 -2.549427 0.178936 0.000000 0.000000 0.000000 12.309689 -2.549415 0.178933 0.653115 -5.403191 -0.818379 0.000000 0.000000 0.000000 12.309689 -2.549415 0.178933 0.403133 -7.148135 -6.292983 -4.414505 15.666663 -60.229216 -4.585044 -60.109353 -6.346703 0.000000 0.000000 0.000000 12.309689 -2.549415 0.178933 2.498930 3.299188 7.925278 7.627547 -24.383031 67.494946 -5.831444 63.439186 7.315609 0.000000 0.000000 0.000000 
-4.918270 88.719620 2.089203 0.000000 0.000000 0.000000 -7.650713 -60.890713 -4.489903 -22.429540 6.385671 19.327007 35.747772 -0.388552 0.608843 -7.925708 2.063086 -16.940993 0.000000 0.000000 0.000000 -7.650713 -60.890713 -4.489903 -13.532109 -9.837060 -20.035827 41.762314 21.346105 -9.352812 -27.882601 -2.777441 10.250011 0.000000 0.000000 0.000000 -7.650713 -60.890713 -4.489903 0.000000 0.000001 0.000000 6.158969 -1.597099 0.071735 12.320329 -3.087639 0.156832 0.000000 0.000000 0.000000 12.320329 -3.087643 0.156833 0.556457 -5.356911 -0.869834 0.000000 0.000000 0.000000 12.320329 -3.087643 0.156833 0.290448 -7.944885 -6.238977 -4.150732 16.488451 -59.286199 -5.168575 -60.609323 -6.657234 0.000000 0.000000 0.000000 12.320329 -3.087643 0.156833 2.665212 1.790626 8.850437 7.770723 -24.674379 66.157431 -5.660483 63.766646 7.644860 0.000000 0.000000 0.000000 
-5.076337 88.830833 1.959915 0.000000 0.000000 0.000000 -8.514363 -64.396335 -5.264104 -20.015827 7.353207 19.711953 35.025504 2.222468 0.309886 -8.668675 2.328960 -17.870855 0.000000 0.000000 0.000000 -8.514363 -64.396335 -5.264104 -15.470780 -8.917130 -19.840289 42.504001 21.320634 -10.123531 -26.576170 -2.887779 11.151314 0.000000 0.000000 0.000000 -8.514363 -64.396335 -5.264104 0.000000 -0.000001 0.000000 6.150605 -1.852692 0.088854 12.304535 -3.627032 0.189895 0.000000 0.000000 0.000000 12.304538 -3.627036 0.189893 0.475990 -5.299517 -0.914106 0.000000 0.000000 0.000000 12.304538 -3.627036 0.189893 0.217907 -8.450070 -5.870570 -4.037449 17.196673 -58.894898 -6.220885 -60.435863 -7.012296 0.000000 0.000000 0.000000 12.304538 -3.627036 0.189893 2.807077 0.647484 9.539816 7.829234 -25.048184 64.937839 -5.555325 63.653210 8.014628 0.000000 0.000000 0.000000 
-5.199140 88.911407 1.848576 0.000000 0.000000 0.000000 -9.628625 -67.611059 -6.304975 -17.710981 8.325156 19.979736 34.307378 4.581835 -0.015402 -9.323351 2.586411 -18.754929 0.000000 0.000000 0.000000 -9.628625 -67.611059 -6.304975 -17.133738 -8.045235 -19.543750 43.053957 21.135035 -10.780432 -25.299150 -3.011021 12.058041 0.000000 0.000000 0.000000 -9.628625 -67.611059 -6.304975 0.000000 0.000000 0.000000 6.136344 -2.061846 0.106088 12.276700 -4.071766 0.217772 0.000000 0.000000 0.000000 12.276708 -4.071791 0.217777 0.425997 -5.238980 -0.970090 0.000000 0.000000 0.000000 12.276708 -4.071791 0.217777 0.136165 -9.060031 -5.887356 -4.124106 17.975133 -58.101680 -7.660136 -60.464953 -7.602608 0.000000 0.000000 0.000000 12.276708 -4.071791 0.217777 2.940691 -0.261704 9.681096 8.069388 -25.338755 64.366473 -5.397624 62.813944 8.255307 0.000000 0.000000 0.000000 
-5.288547 88.983444 1.772640 0.000000 0.000000 0.000000 -10.959882 -70.568169 -7.600665 -15.548654 9.249814 20.083562 33.597294 6.797078 -0.306011 -9.872121 2.821653 -19.555795 0.000000 0.000000 0.000000 -10.959882 -70.568169 -7.600665 -18.591128 -7.250557 -19.181331 43.403595 20.876429 -11.290678 -24.041836 -3.091573 12.834146 0.000000 0.000000 0.000000 -10.959882 -70.568169 -7.600665 0.000000 0.000000 0.000000 6.126500 -2.219569 0.145340 12.258137 -4.409219 0.283271 0.000000 0.000000 0.000000 12.258143 -4.409232 0.283273 0.383988 -5.174147 -0.991388 0.000000 0.000000 0.000000 12.258143 -4.409232 0.283273 0.059665 -9.631999 -5.957209 -4.416242 18.438651 -57.139040 -8.047609 -60.308590 -7.529141 0.000000 0.000000 0.000000 12.258143 -4.409232 0.283273 3.031339 -0.856944 9.661579 8.397198 -25.861294 64.237048 -5.263579 61.917407 8.137160 0.000000 0.000000 0.000000 
-5.348456 89.028297 1.739136 0.000000 0.000000 0.000000 -12.594522 -73.195511 -9.166281 -13.567526 10.005424 19.910281 32.969555 8.945123 -0.492083 -10.291274 3.024319 -20.261790 0.000000 0.000000 0.000000 -12.594522 -73.195511 -9.166281 -19.892181 -6.545917 -18.873819 43.729234 20.598814 -11.732825 -22.920047 -3.153874 13.493706 0.000000 0.000000 0.000000 -12.594522 -73.195511 -9.166281 0.000000 -0.000001 0.000000 6.128748 -2.332462 0.184816 12.263359 -4.653165 0.342915 0.000000 0.000000 0.000000 12.263354 -4.653169 0.342916 0.339229 -5.117234 -1.003207 0.000000 0.000000 0.000000 12.263354 -4.653169 0.342916 -0.013231 -10.174374 -6.041760 -4.889480 18.630755 -56.200890 -8.598968 -60.159808 -7.572560 0.000000 0.000000 0.000000 12.263354 -4.653169 0.342916 3.124439 -1.477944 9.707607 8.685460 -26.324382 64.153296 -5.598771 61.174419 8.310413 0.000000 0.000000 0.000000 
-5.386554 89.053871 1.733566 0.000000 0.000000 0.000000 -14.453758 -75.315014 -10.939713 -11.919775 10.576192 19.595893 32.463981 10.801511 -0.611555 -10.560279 3.174051 -20.797617 0.000000 0.000000 0.000000 -14.453758 -75.315014 -10.939713 -20.930939 -5.963115 -18.618530 44.000949 20.224287 -12.066464 -21.993952 -3.208852 14.040418 0.000000 0.000000 0.000000 -14.453758 -75.315014 -10.939713 -0.000000 0.000001 0.000001 6.135453 -2.420799 0.219358 12.277294 -4.843448 0.393468 0.000000 0.000000 0.000000 12.277303 -4.843436 0.393469 0.309859 -5.065455 -1.009674 0.000000 0.000000 0.000000 12.277303 -4.843436 0.393469 -0.064948 -10.569662 -6.047771 -5.678189 18.552945 -55.463861 -8.745707 -60.086021 -7.178509 0.000000 0.000000 0.000000 12.277303 -4.843436 0.393469 3.201331 -1.984670 9.676071 9.098628 -26.783002 64.205513 -5.857392 60.410510 8.450301 0.000000 0.000000 0.000000 
-5.405691 89.085335 1.745468 0.000000 0.000000 0.000000 -16.349113 -77.016721 -12.710461 -10.532546 11.115135 19.255951 31.934150 12.282064 -0.819119 -10.715484 3.263859 -21.100534 0.000000 0.000000 0.000000 -16.349113 -77.016721 -12.710461 -21.821741 -5.489607 -18.444291 44.266910 19.916828 -12.316482 -21.257970 -3.220626 14.365978 0.000000 0.000000 0.000000 -16.349113 -77.016721 -12.710461 0.000000 0.000000 0.000000 6.141526 -2.486767 0.250215 12.289506 -4.985693 0.432268 0.000000 0.000000 0.000000 12.289511 -4.985651 0.432264 0.298690 -5.021627 -1.016274 0.000000 0.000000 0.000000 12.289511 -4.985651 0.432264 -0.131534 -11.047671 -6.251816 -6.542450 18.415882 -54.603749 -9.153755 -60.205310 -6.966683 0.000000 0.000000 0.000000 12.289511 -4.985651 0.432264 3.256295 -2.341684 9.523382 9.598535 -27.281649 64.463790 -5.933881 59.552665 8.372717 0.000000 0.000000 0.000000 
